<svg width="64" height="64" viewBox="0 0 64 64" fill="none" xmlns="http://www.w3.org/2000/svg">
<rect width="64.0015" height="64" rx="32" fill="white"/>
<path d="M29.9751 19.0671C29.9751 14.9377 33.1775 11.6089 37.3069 11.6089C41.4574 11.6089 44.6808 14.9377 44.6808 19.0671C44.6808 23.1754 41.4574 26.5042 37.3069 26.5042C33.1775 26.5042 29.9751 23.1754 29.9751 19.0671ZM31.9345 19.0671C31.9345 22.1431 34.273 24.6081 37.3069 24.6081C40.3618 24.6081 42.7004 22.1431 42.7004 19.0671C42.7004 15.9911 40.3618 13.505 37.3069 13.505C34.273 13.505 31.9345 15.9911 31.9345 19.0671Z" fill="#181817"/>
<path d="M36.7133 19.7876C38.778 16.2114 43.2157 14.9298 46.7919 16.9945C50.3863 19.0697 51.5135 23.5643 49.4488 27.1405C47.3946 30.6984 42.9386 31.9695 39.3442 29.8943C35.7681 27.8296 34.6591 23.3455 36.7133 19.7876ZM38.4101 20.7673C36.8721 23.4312 37.6649 26.7352 40.2923 28.2521C42.9379 29.7796 46.1957 28.8141 47.7337 26.1503C49.2717 23.4864 48.4895 20.1641 45.8438 18.6366C43.2164 17.1197 39.9481 18.1034 38.4101 20.7673Z" fill="#181817"/>
<path d="M42.1899 23.7804C45.7661 21.7157 50.2501 22.8246 52.3148 26.4008C54.3901 29.9952 53.119 34.4512 49.5428 36.5159C45.9849 38.5701 41.4903 37.4429 39.4151 33.8485C37.3504 30.2723 38.632 25.8345 42.1899 23.7804ZM43.1696 25.4772C40.5057 27.0152 39.5403 30.273 41.0572 32.9004C42.5847 35.546 45.8887 36.3388 48.5526 34.8008C51.2165 33.2628 52.2002 29.9945 50.6727 27.3489C49.1558 24.7215 45.8335 23.9392 43.1696 25.4772Z" fill="#181817"/>
<path d="M44.9339 29.9756C49.0633 29.9756 52.3921 33.178 52.3921 37.3074C52.3921 41.4578 49.0633 44.6813 44.9339 44.6813C40.8256 44.6813 37.4968 41.4578 37.4968 37.3074C37.4968 33.178 40.8256 29.9756 44.9339 29.9756ZM44.9339 31.9349C41.8579 31.9349 39.3929 34.2735 39.3929 37.3074C39.3929 40.3623 41.8579 42.7009 44.9339 42.7009C48.0099 42.7009 50.4959 40.3623 50.4959 37.3074C50.4959 34.2735 48.0099 31.9349 44.9339 31.9349Z" fill="#181817"/>
<path d="M44.2129 36.7133C47.789 38.778 49.0707 43.2157 47.006 46.7919C44.9307 50.3863 40.4362 51.5135 36.86 49.4488C33.3021 47.3946 32.031 42.9386 34.1062 39.3442C36.1709 35.7681 40.655 34.6591 44.2129 36.7133ZM43.2332 38.4101C40.5693 36.8721 37.2653 37.6649 35.7484 40.2923C34.2209 42.9379 35.1864 46.1957 37.8502 47.7337C40.5141 49.2717 43.8364 48.4895 45.3639 45.8438C46.8808 43.2164 45.8971 39.9481 43.2332 38.4101Z" fill="#181817"/>
<path d="M40.2211 42.1885C42.2858 45.7646 41.1768 50.2487 37.6007 52.3134C34.0063 54.3886 29.5503 53.1175 27.4856 49.5413C25.4314 45.9834 26.5586 41.4889 30.153 39.4136C33.7292 37.3489 38.1669 38.6305 40.2211 42.1885ZM38.5242 43.1681C36.9862 40.5043 33.7285 39.5388 31.1011 41.0557C28.4555 42.5832 27.6627 45.8872 29.2007 48.5511C30.7387 51.215 34.007 52.1987 36.6526 50.6712C39.28 49.1543 40.0622 45.832 38.5242 43.1681Z" fill="#181817"/>
<path d="M34.0254 44.9334C34.0254 49.0628 30.823 52.3916 26.6936 52.3916C22.5431 52.3916 19.3197 49.0628 19.3197 44.9334C19.3197 40.8251 22.5431 37.4963 26.6936 37.4963C30.823 37.4963 34.0254 40.8251 34.0254 44.9334ZM32.066 44.9334C32.066 41.8574 29.7274 39.3924 26.6936 39.3924C23.6387 39.3924 21.3001 41.8574 21.3001 44.9334C21.3001 48.0094 23.6387 50.4954 26.6936 50.4954C29.7274 50.4954 32.066 48.0094 32.066 44.9334Z" fill="#181817"/>
<path d="M27.2872 44.2134C25.2225 47.7895 20.7848 49.0712 17.2086 47.0065C13.6142 44.9312 12.487 40.4367 14.5517 36.8605C16.6058 33.3026 21.0618 32.0315 24.6563 34.1067C28.2324 36.1714 29.3414 40.6555 27.2872 44.2134ZM25.5904 43.2337C27.1283 40.5698 26.3356 37.2658 23.7082 35.7488C21.0625 34.2214 17.8048 35.1868 16.2668 37.8507C14.7288 40.5146 15.511 43.8369 18.1567 45.3644C20.7841 46.8813 24.0524 45.8976 25.5904 43.2337Z" fill="#181817"/>
<path d="M21.8125 40.2206C18.2363 42.2853 13.7523 41.1764 11.6876 37.6002C9.61239 34.0058 10.8835 29.5498 14.4596 27.4851C18.0176 25.4309 22.5121 26.5581 24.5874 30.1525C26.6521 33.7287 25.3704 38.1664 21.8125 40.2206ZM20.8328 38.5238C23.4967 36.9858 24.4622 33.728 22.9452 31.1006C21.4178 28.455 18.1137 27.6622 15.4499 29.2002C12.786 30.7382 11.8023 34.0065 13.3297 36.6521C14.8467 39.2795 18.169 40.0617 20.8328 38.5238Z" fill="#181817"/>
<path d="M19.0681 34.0249C14.9387 34.0249 11.6099 30.8225 11.6099 26.6931C11.6099 22.5426 14.9387 19.3192 19.0681 19.3192C23.1764 19.3192 26.5052 22.5426 26.5052 26.6931C26.5052 30.8225 23.1764 34.0249 19.0681 34.0249ZM19.0681 32.0655C22.144 32.0655 24.609 29.727 24.609 26.6931C24.609 23.6382 22.144 21.2996 19.0681 21.2996C15.9921 21.2996 13.506 23.6382 13.506 26.6931C13.506 29.727 15.9921 32.0655 19.0681 32.0655Z" fill="#181817"/>
<path d="M19.7876 27.2867C16.2114 25.222 14.9298 20.7843 16.9945 17.2081C19.0697 13.6137 23.5643 12.4865 27.1405 14.5512C30.6984 16.6054 31.9695 21.0614 29.8942 24.6558C27.8295 28.2319 23.3455 29.3409 19.7876 27.2867ZM20.7673 25.5899C23.4312 27.1279 26.7352 26.3351 28.2521 23.7077C29.7796 21.0621 28.8141 17.8043 26.1503 16.2663C23.4864 14.7283 20.1641 15.5105 18.6366 18.1562C17.1197 20.7836 18.1034 24.0519 20.7673 25.5899Z" fill="#181817"/>
<path d="M23.7809 21.8125C21.7162 18.2363 22.8251 13.7523 26.4013 11.6876C29.9957 9.61239 34.4517 10.8835 36.5164 14.4596C38.5706 18.0176 37.4434 22.5121 33.8489 24.5874C30.2728 26.6521 25.835 25.3704 23.7809 21.8125ZM25.4777 20.8328C27.0157 23.4967 30.2735 24.4622 32.9009 22.9452C35.5465 21.4178 36.3393 18.1137 34.8013 15.4499C33.2633 12.786 29.995 11.8023 27.3494 13.3297C24.722 14.8467 23.9397 18.169 25.4777 20.8328Z" fill="#181817"/>
</svg>
